# xmcd
# 
# Track frame offsets:
#     150
#     13452
#     36007
#     47560
#     59560
#     71860
#     83635
#     99690
#     114390
#     126485
#     138855
#     152427
#     163790
#     174792
#     192337
#     204217
#     217315
#     229137
#     241217
#     280447
# 
# Disc length: 3799
# 
# Revision: 2
# Processed by: cddbd v1.5.2PL0 Copyright (c) Steve Scherf et al.
# Submitted via: BonkEnc v1.0.8
# 
DISCID=230ed514
DTITLE=Various Artist - Blues 2
DYEAR=0
DGENRE=
TTITLE0=Ray charles - Alone in the sky
TTITLE1='Big Bill Broonzy - Sittin' and thinking
TTITLE2=Muddy Waters - Dissatisfied
TTITLE3=King Oliver - Dippermouth blues
TTITLE4=Big Bill Broonzy - Lone wolf blues
TTITLE5=Memphis Slim - Good time roll creole
TTITLE6=John Lee Hooker - My first wife left me
TTITLE7=Sonny Terry - Ham and eggs
TTITLE8=Charles Brown - Trouble blues
TTITLE9=Leadbelly - Kansas city papa
TTITLE10=Lightning' Hopkins - Stool pigeon Blues
TTITLE11=Linda Hayes - Take me back
TTITLE12=Jimmy Rushing - In the moonlight
TTITLE13=Cow Cow Davenport - Atlanta Rag
TTITLE14=Jimmy Winterspoon - Fickle woman
TTITLE15=Arbee Stidham - I wonder why
TTITLE16=Champion Jack Dupree - Everybody's Blues
TTITLE17=Brownie McGhee - Face in the crowd
TTITLE18=Ike Turner - All the blues all at the times
TTITLE19=Leadbelly - Black Betty
EXTD=
EXTT0=
EXTT1=
EXTT2=
EXTT3=
EXTT4=
EXTT5=
EXTT6=
EXTT7=
EXTT8=
EXTT9=
EXTT10=
EXTT11=
EXTT12=
EXTT13=
EXTT14=
EXTT15=
EXTT16=
EXTT17=
EXTT18=
EXTT19=
PLAYORDER=
